<?xml version="1.0" standalone="no"?>
<!DOCTYPE svg PUBLIC "-//W3C//DTD SVG 20010904//EN"
 "http://www.w3.org/TR/2001/REC-SVG-20010904/DTD/svg10.dtd">
<svg version="1.0" xmlns="http://www.w3.org/2000/svg"
 width="100.000000pt" height="100.000000pt" viewBox="0 0 100.000000 100.000000"
 preserveAspectRatio="xMidYMid meet">
<metadata>
Created by potrace 1.11, written by Peter Selinger 2001-2013
</metadata>
<g transform="translate(0.000000,100.000000) scale(0.100000,-0.100000)"
fill="#000000" stroke="none">
<path d="M152 803 c-1 -8 -19 -13 -47 -13 l-45 0 2 -302 3 -303 180 -5 c147
-4 186 -8 210 -22 37 -22 52 -22 89 -3 28 15 31 14 60 -14 63 -61 154 -77 231
-42 51 23 119 96 135 146 15 46 8 137 -14 170 -13 20 -16 57 -16 200 l0 175
-44 0 c-26 0 -46 5 -49 13 -3 6 -6 -52 -6 -130 l-1 -142 -68 6 c-37 3 -100 0
-140 -7 -67 -11 -72 -14 -72 -37 0 -21 3 -23 23 -17 21 6 21 5 -5 -22 -15 -16
-34 -45 -42 -64 -14 -33 -15 -20 -16 188 0 215 -1 222 -20 222 -19 0 -20 -7
-20 -266 0 -250 -1 -266 -17 -259 -43 19 -145 35 -220 35 l-83 0 -3 253 c-1
138 -3 246 -5 240z m678 -339 c61 -25 94 -86 88 -165 -5 -63 -23 -97 -72 -133
-39 -30 -153 -30 -192 0 -49 36 -67 70 -72 132 -3 46 0 68 18 101 37 73 139
101 230 65z"/>
<path d="M740 410 c0 -29 -7 -61 -15 -74 -19 -29 -10 -54 21 -62 13 -4 33 -18
45 -32 18 -24 21 -25 37 -9 15 16 15 18 -5 32 -32 23 -63 95 -63 148 0 26 -4
47 -10 47 -5 0 -10 -23 -10 -50z"/>
<path d="M210 770 c0 -11 6 -20 13 -20 27 0 181 -20 198 -25 15 -5 19 -1 19
18 0 23 -6 26 -63 36 -35 6 -87 11 -115 11 -45 0 -52 -3 -52 -20z"/>
<path d="M613 778 c-47 -8 -53 -12 -53 -34 0 -20 4 -24 19 -19 17 5 171 25
199 25 6 0 12 9 12 20 0 18 -6 20 -62 19 -35 -1 -87 -6 -115 -11z"/>
<path d="M210 688 c0 -24 3 -25 88 -32 48 -3 100 -9 115 -12 26 -6 28 -4 25
17 -3 27 -27 34 -150 45 l-78 7 0 -25z"/>
<path d="M645 699 c-79 -12 -85 -14 -85 -40 0 -18 4 -20 28 -15 15 3 66 9 115
12 83 7 87 8 87 30 0 22 -4 24 -42 23 -24 -1 -70 -5 -103 -10z"/>
<path d="M210 607 c0 -23 4 -25 84 -31 46 -4 98 -11 115 -16 28 -8 31 -7 31
15 0 21 -7 25 -52 34 -29 5 -81 12 -115 16 -62 6 -63 5 -63 -18z"/>
<path d="M705 623 c-22 -2 -64 -8 -92 -14 -46 -9 -53 -14 -53 -34 0 -22 3 -23
31 -15 17 5 69 12 115 16 80 6 84 8 84 30 0 25 3 25 -85 17z"/>
<path d="M210 520 c0 -11 6 -20 13 -20 27 0 181 -20 198 -25 15 -5 19 -1 19
18 0 23 -6 26 -63 36 -35 6 -87 11 -115 11 -45 0 -52 -3 -52 -20z"/>
<path d="M210 438 c0 -24 3 -25 88 -32 48 -3 100 -9 115 -12 26 -6 28 -4 25
17 -3 27 -27 34 -150 45 l-78 7 0 -25z"/>
</g>
</svg>
